<svg width="24" height="24" viewBox="0 0 24 24" fill="none" xmlns="http://www.w3.org/2000/svg">
<path fill-rule="evenodd" clip-rule="evenodd" d="M11.9984 1.35938C6.12369 1.35938 1.35938 6.12305 1.35938 11.9997C1.35938 16.7 4.40778 20.6883 8.63581 22.096C9.16816 22.1933 9.36215 21.8646 9.36215 21.5826C9.36215 21.3298 9.35301 20.661 9.34778 19.7733C6.38823 20.416 5.76378 18.3467 5.76378 18.3467C5.27977 17.1174 4.58218 16.7901 4.58218 16.7901C3.61612 16.1304 4.65533 16.1435 4.65533 16.1435C5.72329 16.2186 6.28501 17.2402 6.28501 17.2402C7.23408 18.8659 8.7756 18.3963 9.38175 18.124C9.47842 17.4368 9.75341 16.9678 10.0571 16.7019C7.69458 16.4328 5.21053 15.5204 5.21053 11.4432C5.21053 10.2812 5.6253 9.33213 6.30593 8.58817C6.1962 8.31905 5.83106 7.23737 6.41044 5.77228C6.41044 5.77228 7.30332 5.48618 9.33602 6.86242C10.1845 6.62663 11.095 6.50906 11.9997 6.50449C12.9037 6.50906 13.8136 6.62663 14.6634 6.86242C16.6948 5.48618 17.5863 5.77228 17.5863 5.77228C18.1671 7.23737 17.802 8.31905 17.6929 8.58817C18.3748 9.33213 18.7863 10.2812 18.7863 11.4432C18.7863 15.5308 16.2983 16.4302 13.9285 16.6934C14.31 17.0221 14.6503 17.6714 14.6503 18.6642C14.6503 20.0861 14.6373 21.2338 14.6373 21.5826C14.6373 21.8674 14.8293 22.1986 15.3688 22.0946C19.5937 20.6845 22.6394 16.6994 22.6394 11.9997C22.6394 6.12305 17.8751 1.35938 11.9984 1.35938Z" fill="black"/>
</svg>
